<svg width="46" height="41" viewBox="0 0 46 41" fill="none" xmlns="http://www.w3.org/2000/svg">
<g id="Phosphor icons / MagnifyingGlass">
<path id="Vector (Stroke)" fill-rule="evenodd" clip-rule="evenodd" d="M20.8438 6.40625C13.3016 6.40625 7.1875 11.8558 7.1875 18.5781C7.1875 25.3005 13.3016 30.75 20.8438 30.75C28.3859 30.75 34.5 25.3005 34.5 18.5781C34.5 11.8558 28.3859 6.40625 20.8438 6.40625ZM4.3125 18.5781C4.3125 10.4406 11.7138 3.84375 20.8438 3.84375C29.9737 3.84375 37.375 10.4406 37.375 18.5781C37.375 26.7157 29.9737 33.3125 20.8438 33.3125C11.7138 33.3125 4.3125 26.7157 4.3125 18.5781Z" fill="white"/>
<path id="Vector (Stroke)_2" fill-rule="evenodd" clip-rule="evenodd" d="M30.5007 27.1855C31.0621 26.6851 31.9723 26.6851 32.5337 27.1855L41.2665 34.969C41.8279 35.4694 41.8279 36.2806 41.2665 36.781C40.7051 37.2814 39.7949 37.2814 39.2336 36.781L30.5007 28.9974C29.9394 28.4971 29.9394 27.6858 30.5007 27.1855Z" fill="white"/>
</g>
</svg>
