<svg width="36" height="39" viewBox="0 0 36 39" fill="none" xmlns="http://www.w3.org/2000/svg">
<g id="entypo-social:instagram-with-circle" clip-path="url(#clip0_114_36)">
<path id="Vector" d="M23.2796 19.5C23.2796 21.0515 22.7191 22.5395 21.7215 23.6366C20.7238 24.7337 19.3707 25.35 17.9598 25.35C16.5489 25.35 15.1958 24.7337 14.1982 23.6366C13.2005 22.5395 12.64 21.0515 12.64 19.5C12.64 19.1666 12.672 18.8409 12.7269 18.525H10.8668V26.3192C10.8668 26.8613 11.2658 27.3 11.7587 27.3H24.1627C24.3989 27.2995 24.6253 27.1959 24.7922 27.0121C24.9591 26.8282 25.0528 26.579 25.0528 26.3192V18.525H23.1927C23.2477 18.8409 23.2796 19.1666 23.2796 19.5ZM17.9598 23.4C18.4257 23.3999 18.8869 23.2989 19.3173 23.1027C19.7476 22.9066 20.1386 22.6191 20.4679 22.2568C20.7973 21.8944 21.0585 21.4643 21.2366 20.991C21.4148 20.5177 21.5064 20.0104 21.5063 19.4981C21.5062 18.9858 21.4143 18.4786 21.236 18.0053C21.0576 17.5321 20.7962 17.1021 20.4667 16.74C20.1372 16.3778 19.7461 16.0906 19.3156 15.8947C18.8852 15.6987 18.4239 15.598 17.958 15.5981C17.0172 15.5983 16.115 16.0096 15.4499 16.7413C14.7848 17.4731 14.4113 18.4654 14.4115 19.5C14.4118 20.5346 14.7857 21.5268 15.4512 22.2582C16.1166 22.9895 17.019 23.4003 17.9598 23.4ZM22.2156 15.405H24.3418C24.483 15.405 24.6185 15.3435 24.7186 15.2338C24.8186 15.1242 24.8751 14.9754 24.8755 14.82V12.482C24.8755 12.3263 24.8193 12.177 24.7192 12.0669C24.6191 11.9569 24.4833 11.895 24.3418 11.895H22.2156C22.0741 11.895 21.9383 11.9569 21.8382 12.0669C21.7381 12.177 21.6819 12.3263 21.6819 12.482V14.82C21.6837 15.1418 21.923 15.405 22.2156 15.405ZM17.9598 0.780029C13.445 0.780029 9.11501 2.75231 5.92253 6.26299C2.73004 9.77367 0.936523 14.5352 0.936523 19.5C0.936523 24.4649 2.73004 29.2264 5.92253 32.7371C9.11501 36.2477 13.445 38.22 17.9598 38.22C20.1953 38.22 22.409 37.7358 24.4743 36.7951C26.5397 35.8543 28.4163 34.4754 29.9971 32.7371C31.5779 30.9988 32.8318 28.9351 33.6873 26.6639C34.5428 24.3927 34.9831 21.9584 34.9831 19.5C34.9831 17.0417 34.5428 14.6074 33.6873 12.3362C32.8318 10.065 31.5779 8.0013 29.9971 6.26299C28.4163 4.52468 26.5397 3.14577 24.4743 2.205C22.409 1.26424 20.1953 0.780029 17.9598 0.780029ZM26.8261 27.0836C26.8261 28.275 25.9395 29.25 24.856 29.25H11.0636C9.98015 29.25 9.09352 28.275 9.09352 27.0836V11.9165C9.09352 10.725 9.98015 9.75003 11.0636 9.75003H24.856C25.9395 9.75003 26.8261 10.725 26.8261 11.9165V27.0836Z" fill="black"/>
</g>
<defs>
<clipPath id="clip0_114_36">
<rect width="35.4652" height="39" fill="white" transform="translate(0.227051)"/>
</clipPath>
</defs>
</svg>
