<svg width="37" height="39" viewBox="0 0 37 39" fill="none" xmlns="http://www.w3.org/2000/svg">
<g id="entypo-social:pinterest-with-circle">
<path id="Vector" d="M18.4486 0.779785C9.04676 0.779785 1.42529 9.16089 1.42529 19.4998C1.42529 29.8387 9.04676 38.2198 18.4486 38.2198C27.8504 38.2198 35.4719 29.8387 35.4719 19.4998C35.4719 9.16089 27.8504 0.779785 18.4486 0.779785ZM19.6136 23.936C18.5213 23.8444 18.0638 23.2496 17.2091 22.6802C16.7392 25.3927 16.1646 27.994 14.4623 29.3531C13.9356 25.2503 15.2319 22.1732 15.8348 18.9031C14.8081 17.0018 15.9572 13.1779 18.1241 14.1178C20.7893 15.28 15.8153 21.1865 19.1543 21.9256C22.6406 22.6939 24.0645 15.2722 21.9029 12.862C18.7784 9.37734 12.8114 12.782 13.5455 17.7701C13.7228 18.9889 14.8701 19.3594 14.003 21.0422C12.0046 20.5547 11.407 18.8212 11.485 16.5104C11.6073 12.7274 14.5758 10.0774 17.5513 9.71274C21.3159 9.25253 24.8483 11.2318 25.3377 15.1279C25.8856 19.5232 23.6371 24.2792 19.6136 23.936Z" fill="black"/>
</g>
</svg>
