<svg width="37" height="39" viewBox="0 0 37 39" fill="none" xmlns="http://www.w3.org/2000/svg">
<g id="entypo-social:youtube-with-circle">
<path id="Vector" d="M21.5465 19.1744L17.5637 17.1308C17.2162 16.9533 16.9307 17.1522 16.9307 17.5754V21.4247C16.9307 21.8478 17.2162 22.0467 17.5637 21.8693L21.5447 19.8257C21.894 19.6463 21.894 19.3538 21.5465 19.1744ZM18.704 0.780029C9.30213 0.780029 1.68066 9.16113 1.68066 19.5C1.68066 29.8389 9.30213 38.22 18.704 38.22C28.1058 38.22 35.7272 29.8389 35.7272 19.5C35.7272 9.16113 28.1058 0.780029 18.704 0.780029ZM18.704 27.105C9.99016 27.105 9.83766 26.2412 9.83766 19.5C9.83766 12.7589 9.99016 11.895 18.704 11.895C27.4177 11.895 27.5702 12.7589 27.5702 19.5C27.5702 26.2412 27.4177 27.105 18.704 27.105Z" fill="black"/>
</g>
</svg>
